<?xml version="1.0" encoding="utf-8"?>
<!-- Generator: Adobe Illustrator 24.0.2, SVG Export Plug-In . SVG Version: 6.00 Build 0)  -->
<svg version="1.1" id="Layer_1" xmlns="http://www.w3.org/2000/svg" xmlns:xlink="http://www.w3.org/1999/xlink" x="0px" y="0px"
	 viewBox="0 0 1280 1024" style="enable-background:new 0 0 1280 1024;" xml:space="preserve">
<style type="text/css">
	.st0{fill:#B04A68;}
	.st1{fill:#E7C81E;}
	.st2{fill:#307ABF;}
	.st3{fill:none;}
	.st4{font-family:'CopperplateGothic-Light';}
	.st5{font-size:41px;}
</style>
<g>
	<rect x="411.04" y="289.86" class="st0" width="559.3" height="295.56"/>
	<polygon class="st1" points="935.1,356.94 875.99,359.21 866.89,352.39 823.7,356.94 767.99,359.21 744.12,350.11 685.01,380.81 
		669.09,377.4 577.01,411.5 571.33,417.18 559.96,413.77 548.6,397.86 533.82,392.18 506.53,399 499.71,406.95 507.67,431.96 
		517.9,436.51 528.13,468.34 545.18,466.07 630.44,471.75 680.46,476.3 749.81,452.43 816.88,436.51 871.44,419.46 914.64,381.94 	
		"/>
	<polygon class="st2" points="855.53,446.74 845.3,462.66 822.56,469.48 791.87,475.16 752.08,481.98 727.07,492.21 711.16,502.44 
		663.41,500.17 627.03,495.62 600.89,491.08 572.47,502.44 555.42,509.26 547.46,524.04 539.5,529.73 525.86,528.59 523.59,516.08 
		517.9,522.91 501.99,530.86 490.62,532 494.03,511.54 514.49,503.58 528.13,491.08 513.35,492.21 499.71,495.62 489.48,493.35 
		489.48,479.71 504.26,469.48 536.09,466.07 599.75,464.93 	"/>
	<rect x="495.17" y="532" class="st3" width="393.33" height="34.1"/>
	<text transform="matrix(1 0 0 1 611.932 554.4267)" class="st4 st5">Pier 68</text>
</g>
</svg>
